<svg width="21" height="20" viewBox="0 0 21 20" fill="none" xmlns="http://www.w3.org/2000/svg">
<path d="M10.4998 1.66675C8.85166 1.66675 7.2405 2.15549 5.87009 3.07117C4.49968 3.98685 3.43158 5.28834 2.80084 6.81105C2.17011 8.33377 2.00509 10.0093 2.32663 11.6258C2.64817 13.2423 3.44185 14.7272 4.60728 15.8926C5.77272 17.0581 7.25758 17.8518 8.87409 18.1733C10.4906 18.4948 12.1662 18.3298 13.6889 17.6991C15.2116 17.0683 16.5131 16.0002 17.4288 14.6298C18.3444 13.2594 18.8332 11.6483 18.8332 10.0001C18.254 10.1784 17.6372 10.1955 17.0491 10.0495C16.4609 9.90346 15.9237 9.59988 15.4952 9.17137C15.0667 8.74287 14.7631 8.20567 14.6171 7.61753C14.4711 7.02939 14.4882 6.41257 14.6665 5.83341C14.0873 6.01175 13.4705 6.02882 12.8824 5.88281C12.2943 5.73679 11.757 5.43321 11.3285 5.00471C10.9 4.57621 10.5965 4.039 10.4504 3.45086C10.3044 2.86272 10.3215 2.24591 10.4998 1.66675Z" stroke="#C32B2B" stroke-width="2" stroke-linecap="round" stroke-linejoin="round"/>
<path d="M7.5835 7.08325V7.09159" stroke="#C32B2B" stroke-width="2" stroke-linecap="round" stroke-linejoin="round"/>
<path d="M13.8335 12.9167V12.9251" stroke="#C32B2B" stroke-width="2" stroke-linecap="round" stroke-linejoin="round"/>
<path d="M10.5 10V10.0083" stroke="#C32B2B" stroke-width="2" stroke-linecap="round" stroke-linejoin="round"/>
<path d="M9.6665 14.1667V14.1751" stroke="#C32B2B" stroke-width="2" stroke-linecap="round" stroke-linejoin="round"/>
<path d="M6.3335 11.6667V11.6751" stroke="#C32B2B" stroke-width="2" stroke-linecap="round" stroke-linejoin="round"/>
</svg>
