<svg width="21" height="20" viewBox="0 0 21 20" fill="none" xmlns="http://www.w3.org/2000/svg">
<path d="M13.0002 1.66675H5.50016C5.05814 1.66675 4.63421 1.84234 4.32165 2.1549C4.00909 2.46746 3.8335 2.89139 3.8335 3.33341V16.6667C3.8335 17.1088 4.00909 17.5327 4.32165 17.8453C4.63421 18.1578 5.05814 18.3334 5.50016 18.3334H15.5002C15.9422 18.3334 16.3661 18.1578 16.6787 17.8453C16.9912 17.5327 17.1668 17.1088 17.1668 16.6667V5.83341L13.0002 1.66675Z" stroke="#C32B2B" stroke-width="2" stroke-linecap="round" stroke-linejoin="round"/>
<path d="M12.1665 1.66675V5.00008C12.1665 5.44211 12.3421 5.86603 12.6547 6.17859C12.9672 6.49115 13.3911 6.66675 13.8332 6.66675H17.1665" stroke="#C32B2B" stroke-width="2" stroke-linecap="round" stroke-linejoin="round"/>
<path d="M8.83317 7.5H7.1665" stroke="#C32B2B" stroke-width="2" stroke-linecap="round" stroke-linejoin="round"/>
<path d="M13.8332 10.8333H7.1665" stroke="#C32B2B" stroke-width="2" stroke-linecap="round" stroke-linejoin="round"/>
<path d="M13.8332 14.1667H7.1665" stroke="#C32B2B" stroke-width="2" stroke-linecap="round" stroke-linejoin="round"/>
</svg>
